<svg id="icons" xmlns="http://www.w3.org/2000/svg" viewBox="0 0 32 32">
    <defs>
        <style>
            .cls-1 {
                fill: none;
            }

            .cls-2 {
                fill: #007ac2;
            }
            
            @media (prefers-color-scheme: dark) {
                .cls-2 {fill: #00a0ff;}
            }
        </style>
    </defs>
    <rect class="cls-1" width="32" height="32" />
    <path class="cls-2" d="M28.91613,13.86943h2.59268V24.243H28.91613ZM9.59947,22.96675A5.38714,5.38714,0,0,1,5.70128,24.5059a5.4495,5.4495,0,1,1,0-10.89243c2.89864,0,4.86415,2.03037,4.86415,5.64053v.713H2.65518a2.68954,2.68954,0,0,0,2.78911,2.4636,3.30867,3.30867,0,0,0,2.5188-1.10016ZM2.65518,18.02133H7.97333a2.38889,2.38889,0,0,0-2.6382-2.46418A2.58025,2.58025,0,0,0,2.65518,18.02133Zm11.52751-1.23122c0-.77866.82163-1.10249,1.51412-1.10249a2.35239,2.35239,0,0,1,2.02355,1.05015L19.36979,15.09a4.54977,4.54977,0,0,0-3.60929-1.47656c-2.09633,0-4.17159,1.03623-4.17159,3.34973,0,3.9556,5.59756,2.26891,5.59756,4.40815,0,.821-.97225,1.18831-1.72843,1.18831a3.1661,3.1661,0,0,1-2.45853-1.26906l-1.675,1.67446a5.09457,5.09457,0,0,0,3.98226,1.54084c2.11735,0,4.47464-.86483,4.47464-3.329C19.78142,17.1349,14.18269,18.6482,14.18269,16.79011Zm13.52494-3.03066a3.35254,3.35254,0,0,0-.92107-.149,3.30586,3.30586,0,0,0-3.07091,1.89989h-.04151V13.86943H21.08088V24.243h2.59326V18.68781A2.60757,2.60757,0,0,1,26.46185,16.073a4.96425,4.96425,0,0,1,1.14459.16855Zm.78208-3.3932a1.72521,1.72521,0,1,0,1.70114-1.65769A1.67716,1.67716,0,0,0,28.48971,10.36625Z" />
</svg>