<svg version="1.0" xmlns="http://www.w3.org/2000/svg" width="300.000000pt" height="300.000000pt" viewBox="0 0 300.000000 300.000000" preserveAspectRatio="xMidYMid meet">
    <defs>
        <style>
            svg {
            background: #fff;
            }
            .logo {
                fill: #293132;
            }
            
            @media (prefers-color-scheme: dark) {
                svg {background: #293132;}
                .logo {fill: #fff;}
            }
        </style>
    </defs>
<title>FeDX Favicon</title>
    <g class="logo" transform="translate(0.000000,300.000000) scale(0.100000,-0.100000)" fill="#000000" stroke="none">
        <path d="M2237 2973 c-14 -4 -18 -12 -14 -29 4 -21 0 -24 -24 -24 -24 0 -29
-4 -29 -25 0 -20 -5 -25 -25 -25 -20 0 -25 -5 -25 -25 0 -18 -5 -25 -20 -25
-15 0 -20 -7 -20 -25 0 -20 -5 -25 -25 -25 -21 0 -25 -5 -25 -31 0 -28 -3 -31
-25 -27 -23 5 -25 2 -25 -28 0 -30 -3 -34 -26 -34 -23 0 -25 -3 -20 -25 6 -23
3 -25 -24 -25 -27 0 -30 -2 -24 -25 5 -22 3 -25 -22 -25 -16 0 -46 -3 -66 -6
-34 -6 -38 -4 -38 14 0 70 -23 124 -78 183 l-56 61 -81 -4 c-79 -3 -81 -4
-118 -43 -20 -22 -40 -50 -43 -62 -3 -13 -8 -23 -10 -23 -2 0 -20 11 -40 25
-41 28 -46 29 -129 15 -51 -8 -65 -15 -93 -47 -19 -21 -35 -53 -38 -74 -6 -37
-7 -38 -31 -22 -25 17 -93 14 -145 -6 -41 -16 -80 -75 -86 -130 l-4 -47 -48
-1 c-84 -1 -118 -26 -168 -123 l-44 -85 3 -93 4 -94 -125 -44 c-210 -74 -224
-81 -251 -124 -13 -22 -32 -40 -41 -40 -24 0 -25 -55 -2 -64 23 -9 22 -9 26
27 2 24 8 33 25 35 13 2 27 15 35 32 8 20 23 32 48 38 19 6 113 38 209 73 172
61 197 65 208 32 2 -6 -60 -32 -144 -59 -82 -27 -149 -53 -151 -59 -1 -5 11
-13 27 -18 56 -14 101 -93 101 -178 0 -20 3 -50 6 -67 l6 -30 67 23 c36 13
134 51 216 85 83 35 182 75 220 90 72 29 217 90 365 155 47 20 101 43 120 50
19 7 52 20 73 29 36 16 37 16 37 -4 0 -17 -22 -32 -112 -74 -235 -109 -787
-333 -1038 -421 -186 -65 -196 -64 -290 27 -50 49 -60 64 -60 92 0 18 -3 54
-6 80 -6 37 -10 46 -27 46 -19 0 -20 -5 -14 -90 l6 -90 56 -55 c31 -30 71 -63
88 -72 18 -10 37 -25 43 -32 15 -19 71 -7 231 50 63 22 117 39 118 37 2 -2 13
-45 24 -97 16 -73 31 -110 70 -174 67 -111 114 -244 140 -403 18 -115 21 -172
21 -463 l0 -331 25 0 c14 0 25 5 25 10 0 6 43 10 108 11 104 1 105 2 47 11
-33 5 -81 7 -107 5 -35 -3 -48 -1 -48 9 0 10 26 14 103 17 l102 3 -102 2 c-58
1 -103 6 -103 12 0 5 46 11 102 13 l103 3 -102 2 c-86 2 -103 5 -103 18 0 13
15 15 100 12 55 -2 100 0 100 5 0 4 -45 7 -100 7 -133 0 -130 18 3 23 l102 3
-102 2 c-61 1 -103 6 -103 12 0 6 41 10 103 10 69 0 97 3 87 10 -8 5 -54 10
-102 10 -50 0 -88 4 -88 10 0 5 39 11 88 13 l87 3 -87 2 c-49 1 -88 6 -88 12
0 5 39 11 88 13 l87 3 -87 2 c-66 1 -88 5 -88 15 0 11 16 13 75 9 52 -3 75 -1
75 7 0 7 -28 12 -77 13 l-78 2 80 6 c52 3 74 8 63 14 -9 4 -44 6 -78 4 -43 -2
-60 1 -60 10 0 8 23 12 82 12 45 0 79 3 75 6 -3 3 -39 6 -81 5 -41 0 -78 4
-81 9 -4 6 19 10 59 10 41 0 66 4 66 11 0 7 -21 10 -60 7 -35 -2 -59 1 -57 7
1 5 35 9 74 8 40 0 70 4 67 8 -3 5 -36 9 -75 9 -39 0 -69 4 -69 10 0 6 25 10
55 10 32 0 55 4 55 11 0 6 -20 9 -52 7 -30 -2 -54 1 -55 7 -1 6 19 9 52 7 34
-2 55 1 55 7 0 7 -24 11 -60 11 -77 0 -79 18 -2 23 l57 3 -58 2 c-42 1 -57 6
-54 15 2 8 20 11 55 9 33 -3 52 0 52 7 0 7 -22 11 -55 11 -30 0 -55 5 -55 10
0 6 26 10 57 10 31 0 53 3 49 7 -3 4 -29 6 -56 4 -31 -1 -50 2 -50 8 0 7 23
11 56 11 34 0 53 4 49 10 -3 6 -28 10 -56 10 -27 0 -49 5 -49 10 0 6 23 10 50
10 28 0 50 5 50 10 0 6 -25 10 -55 10 -30 0 -55 5 -55 10 0 6 23 10 50 10 30
0 50 4 50 11 0 7 -16 9 -50 4 -40 -6 -50 -4 -50 8 0 11 11 13 50 9 48 -4 50
-4 48 19 -3 23 -1 23 65 20 41 -2 67 1 67 7 0 6 -10 12 -22 14 -17 3 -11 7 22
15 39 9 26 11 -102 12 -91 1 -148 5 -148 11 0 6 48 10 123 10 97 0 130 4 162
19 47 21 81 56 66 66 -7 4 -4 19 9 45 11 22 20 48 20 59 0 11 7 27 16 35 14
15 14 16 -3 16 -13 0 -22 -13 -32 -45 -16 -56 -42 -89 -92 -121 -33 -21 -50
-24 -116 -22 l-78 1 70 8 c93 11 95 11 89 20 -2 4 13 17 34 29 29 16 42 33 55
69 23 66 21 73 -6 28 -35 -58 -68 -75 -125 -66 -26 4 -84 8 -129 8 -130 1
-111 20 24 24 l118 3 -127 2 c-156 2 -175 21 -25 24 l102 2 -100 3 c-134 4
-152 16 -35 23 l95 6 -92 2 c-112 2 -138 22 -31 23 87 1 58 16 -34 18 -32 1
-58 5 -58 10 0 6 27 9 60 9 33 0 63 2 67 6 3 3 -26 6 -65 6 -86 0 -97 17 -15
23 l58 3 -67 2 c-80 2 -92 21 -15 24 l52 1 -59 6 c-33 3 -61 11 -63 17 -3 8
13 10 49 7 39 -3 49 -2 38 6 -8 6 -36 11 -62 11 -27 0 -48 4 -48 9 0 6 21 12
48 14 l47 3 -52 2 c-69 3 -69 20 -1 25 l53 3 -57 2 c-40 1 -58 6 -58 15 0 10
17 12 67 10 48 -2 62 0 48 6 -11 5 -44 10 -72 10 -87 1 -60 20 35 24 l87 3
-92 2 c-52 1 -93 6 -93 12 0 5 47 11 108 13 l107 3 -107 2 c-64 1 -108 6 -108
12 0 6 62 11 163 11 182 2 176 6 -28 18 l-140 8 125 3 c69 1 184 6 255 9 128
7 126 8 -90 10 -134 1 -212 6 -200 11 11 5 113 9 228 9 l207 1 0 -75 c0 -51 7
-92 21 -130 41 -110 146 -209 237 -225 l47 -8 -50 -1 c-36 -1 -46 -4 -35 -11
8 -5 89 -10 179 -10 90 0 161 -3 157 -7 -4 -4 -87 -10 -184 -13 l-177 -7 183
-1 c113 -1 182 -6 182 -12 0 -6 -58 -11 -152 -11 l-153 -2 120 -8 c66 -5 135
-6 153 -3 19 3 32 1 32 -6 0 -6 -49 -10 -139 -10 -83 0 -142 -4 -146 -10 -4
-6 24 -10 77 -10 106 0 86 -19 -22 -21 l-75 -2 57 -6 c76 -8 85 -21 15 -21
-41 0 -55 -3 -52 -12 2 -7 9 -98 16 -203 23 -374 26 -396 25 -157 l-1 222 33
0 c21 0 31 4 27 11 -4 5 -17 9 -28 7 -39 -5 -29 17 10 23 l38 6 -42 2 c-61 2
-53 21 10 23 l52 2 -47 3 c-31 3 -48 9 -48 17 0 10 13 12 50 8 l50 -5 0 31 c0
18 6 32 16 36 26 10 134 7 134 -4 0 -5 -22 -10 -50 -10 -31 0 -50 -4 -50 -11
0 -8 16 -10 50 -6 29 4 50 2 50 -3 0 -6 -20 -10 -45 -10 -42 0 -45 -2 -45 -27
0 -27 1 -28 50 -25 32 3 50 0 50 -7 0 -7 -20 -11 -50 -11 -27 0 -50 -4 -50
-10 0 -5 23 -10 50 -10 28 0 50 -4 50 -10 0 -5 -23 -10 -51 -10 -27 0 -48 -4
-45 -9 3 -4 28 -6 56 -3 31 3 50 1 50 -6 0 -12 -75 -27 -90 -17 -5 3 -10 -1
-10 -9 0 -12 9 -14 50 -9 42 5 50 3 50 -11 0 -13 -10 -16 -50 -16 -27 0 -50
-4 -50 -9 0 -6 24 -7 55 -4 38 4 55 2 55 -6 0 -7 -19 -11 -49 -11 -28 0 -53
-5 -56 -10 -4 -6 15 -10 49 -10 71 0 74 -19 4 -22 l-53 -2 50 -3 c73 -6 82
-23 12 -23 -36 0 -57 -4 -57 -11 0 -8 18 -10 55 -7 41 4 55 1 55 -9 0 -9 -17
-14 -57 -15 l-58 -2 55 -3 c76 -6 89 -23 17 -23 -31 0 -57 -4 -57 -10 0 -5 25
-10 55 -10 73 0 71 -19 -2 -22 l-58 -2 55 -3 c78 -6 89 -23 15 -24 -33 0 -69
-5 -80 -10 -14 -6 4 -8 58 -6 94 5 103 -15 11 -24 l-59 -6 63 -1 c34 -1 62 -6
62 -12 0 -5 -28 -11 -62 -13 l-63 -3 68 -2 c83 -2 90 -22 8 -22 -33 0 -63 -5
-67 -11 -4 -7 14 -10 60 -7 40 2 66 -1 66 -7 0 -6 -24 -9 -60 -7 -39 3 -60 0
-60 -7 0 -7 25 -11 65 -11 89 0 83 -18 -7 -23 l-73 -3 73 -2 c91 -3 95 -21 5
-24 l-68 -2 65 -3 c91 -6 102 -23 15 -24 -112 -2 -135 -17 -27 -18 113 -1 125
-20 15 -23 l-78 -2 75 -3 c104 -5 115 -23 15 -24 -44 0 -89 -5 -100 -10 -13
-6 12 -8 78 -6 74 2 97 0 97 -10 0 -9 -23 -14 -82 -15 l-83 -2 75 -3 c110 -5
118 -17 15 -23 l-90 -6 88 -2 c113 -3 114 -22 2 -29 -44 -2 -82 -7 -84 -9 -2
-2 35 -4 82 -4 51 0 87 -4 87 -10 0 -5 9 -10 20 -10 27 0 27 13 -15 307 -64
464 -87 658 -89 753 l-1 95 114 215 c63 118 140 259 173 312 53 89 58 102 58
156 0 52 -6 70 -51 152 -54 101 -54 110 9 110 30 0 33 -2 27 -21 -7 -21 -5
-22 45 -15 l52 7 -6 -25 c-6 -23 -3 -26 19 -26 20 0 25 -5 25 -25 0 -20 5 -25
25 -25 26 0 35 -25 13 -33 -32 -11 14 -27 86 -30 l77 -2 -2 105 c-1 102 -1
105 20 102 17 -3 21 2 21 23 0 24 3 26 38 25 84 -4 92 -2 92 26 0 23 3 25 31
19 29 -7 31 -6 27 22 -3 25 0 28 25 25 23 -2 27 1 27 23 0 20 5 25 25 25 19 0
25 5 25 21 0 16 5 20 20 16 17 -4 20 0 20 25 0 27 3 30 25 26 24 -5 25 -3 25
48 l0 54 -190 0 -190 0 0 -25 c0 -20 -5 -25 -25 -25 -25 0 -25 1 -25 80 0 79
0 80 25 80 16 0 25 6 25 15 0 13 24 15 153 15 83 0 169 3 190 6 36 6 37 7 37
51 0 40 -2 44 -22 41 -19 -2 -24 2 -26 25 -3 22 -8 27 -25 25 -16 -2 -23 3
-25 19 -2 14 -11 23 -25 25 -16 2 -21 9 -19 24 3 19 -4 22 -53 29 -52 6 -55 8
-49 31 6 24 5 24 -60 24 -64 0 -66 1 -66 25 l0 25 -127 -1 c-71 -1 -136 -3
-146 -6z m263 -73 l0 -30 65 0 c63 0 65 -1 65 -25 0 -23 3 -25 50 -25 48 0 50
-1 50 -29 0 -25 3 -28 25 -23 22 4 25 1 25 -25 0 -27 3 -30 26 -25 21 4 25 1
22 -14 -3 -18 -16 -19 -166 -22 l-162 -2 0 30 c0 25 -4 30 -25 30 -23 0 -25
-4 -25 -45 0 -41 -2 -45 -25 -45 l-25 0 1 -212 c1 -117 4 -270 7 -341 l7 -127
-25 0 c-54 0 -67 10 -73 52 -5 38 -37 89 -37 60 0 -18 -17 -14 -22 6 -5 20
-131 60 -213 69 -48 5 -52 8 -78 55 -25 45 -27 52 -16 89 10 33 10 45 -4 74
-17 35 -16 35 -140 66 -43 11 -68 31 -55 44 2 2 34 10 71 17 41 8 67 18 67 25
0 7 11 13 25 13 20 0 25 5 25 24 0 18 6 25 22 28 17 2 23 10 23 28 0 18 6 26
23 28 17 3 22 10 22 34 0 27 3 30 25 26 22 -5 25 -2 25 23 0 24 4 29 25 29 20
0 25 5 25 25 0 18 5 25 20 25 16 0 20 7 20 30 0 25 4 30 23 30 l24 0 6 -197
c3 -109 5 -199 4 -200 -1 0 -23 -4 -49 -8 l-48 -7 -1 73 c-1 41 -5 85 -10 99
-5 16 -7 -8 -6 -73 2 -94 1 -98 -20 -104 -13 -3 -30 -3 -38 1 -13 5 -14 -5 -8
-67 5 -40 8 -94 8 -120 l0 -48 45 5 c25 3 68 7 95 8 l50 2 3 -53 c2 -32 10
-60 19 -69 14 -14 15 -9 8 56 -7 70 -6 72 15 72 17 0 21 4 16 17 -4 10 -10 62
-13 115 -4 69 -10 98 -19 98 -15 0 -21 58 -28 268 -4 90 -2 142 4 142 6 0 10
11 10 25 l0 25 120 0 120 0 0 -30z m-841 -186 l41 -47 0 -93 c0 -51 3 -99 6
-107 9 -24 -129 -87 -205 -94 l-61 -6 -1 29 c0 16 -6 83 -13 149 -14 129 -11
145 29 188 23 24 33 27 95 27 l68 0 41 -46z m-321 -69 c38 -33 39 -37 46 -117
3 -46 9 -100 12 -121 l7 -38 -37 6 c-53 10 -80 0 -101 -38 -13 -25 -17 -47
-13 -85 l5 -52 -31 -1 -31 -2 30 -4 c57 -7 61 -17 10 -23 l-50 -7 58 -1 c71
-2 75 -20 5 -25 l-53 -3 63 -2 c79 -2 82 -22 3 -22 -55 0 -59 2 -70 28 -6 15
-16 61 -22 102 -20 136 -38 244 -50 296 -11 47 -11 54 10 88 25 39 58 54 128
55 36 1 50 -5 81 -34z m-297 -118 c41 -27 51 -56 79 -231 12 -72 28 -145 35
-163 13 -30 12 -34 -4 -42 -10 -6 -46 -15 -81 -20 -34 -6 -65 -13 -69 -17 -10
-11 112 7 147 22 25 10 33 11 30 1 -5 -15 -79 -35 -135 -36 -74 -2 -88 9 -113
91 -13 40 -25 94 -28 121 -3 28 -9 47 -17 47 -13 0 -22 31 -32 106 -5 47 15
97 47 114 15 8 69 24 101 29 3 1 21 -9 40 -22z m1787 -109 c-2 -17 -10 -23
-28 -23 -21 0 -24 -4 -22 -25 2 -14 0 -21 -5 -17 -4 5 -8 14 -8 20 0 5 -6 12
-12 15 -8 2 -13 -5 -13 -17 0 -17 -6 -21 -30 -21 -25 0 -30 -4 -30 -25 0 -20
-5 -25 -25 -25 -20 0 -25 -5 -25 -24 0 -23 -3 -24 -34 -19 -38 6 -86 -3 -86
-15 0 -4 20 -14 45 -21 25 -7 45 -18 45 -23 0 -6 -8 -7 -17 -3 -10 4 -44 10
-75 13 l-58 4 0 84 c0 83 0 84 25 84 21 0 25 5 25 30 l0 30 166 0 165 0 -3
-22z m-598 -2 c0 -14 -103 -32 -121 -21 -19 13 -8 24 29 28 79 8 92 7 92 -7z
m-420 -33 c48 -44 286 -466 290 -514 5 -55 0 -70 -17 -66 -10 3 -49 2 -88 -2
l-70 -8 88 -2 c110 -1 109 -20 -1 -23 l-77 -2 73 -3 c39 -2 72 -8 72 -13 0 -6
-39 -11 -87 -12 l-88 -2 78 -3 c42 -2 77 -7 77 -12 0 -4 -44 -13 -97 -18 l-98
-11 88 2 c48 0 87 -2 87 -5 0 -4 -35 -11 -77 -16 l-78 -10 68 -2 c105 -2 81
-21 -30 -23 l-98 -2 88 -3 c109 -5 115 -23 7 -23 -52 0 -80 -4 -80 -11 0 -8
21 -9 70 -4 49 5 70 4 70 -4 0 -7 -34 -12 -97 -13 l-98 -2 93 -3 c103 -4 127
-23 30 -24 -35 0 -85 -5 -113 -9 -41 -7 -31 -8 53 -6 128 2 134 -17 6 -25
l-89 -5 83 -2 c47 -1 82 -6 82 -12 0 -6 -35 -11 -82 -12 l-83 -2 73 -3 c39 -2
72 -8 72 -13 0 -6 -37 -11 -82 -12 l-83 -2 80 -6 c92 -6 82 -18 -20 -23 l-70
-3 73 -2 c106 -3 90 -22 -20 -23 -79 -1 -86 -3 -48 -9 25 -5 62 -6 83 -3 24 4
37 2 37 -6 0 -7 -22 -11 -57 -12 -32 -1 -87 -5 -123 -9 -59 -7 -54 -8 47 -8
62 0 113 -4 113 -8 0 -5 -60 -11 -132 -14 l-133 -6 128 -2 c76 -1 127 -6 127
-12 0 -6 -51 -11 -127 -12 l-128 -2 125 -6 c69 -3 120 -8 114 -12 -6 -4 -101
-8 -212 -10 -112 -2 -202 -7 -202 -12 0 -5 79 -6 193 -2 106 3 197 3 201 -1 4
-5 -79 -13 -186 -20 l-193 -11 183 3 c100 3 182 1 182 -4 0 -4 -69 -11 -152
-15 -206 -11 -306 -25 -133 -20 72 3 159 7 195 9 63 5 64 5 36 -10 -21 -11
-66 -16 -170 -17 l-141 -2 138 -3 c181 -5 173 -23 -9 -23 -126 0 -137 2 -173
25 -44 27 -77 67 -112 135 -20 38 -23 60 -24 145 0 82 4 108 21 145 l22 45 -5
-70 c-3 -38 -1 -86 5 -105 8 -30 10 -23 10 50 0 96 14 160 45 206 17 27 26 31
56 29 22 -1 25 -1 8 2 -16 2 -26 9 -24 16 2 8 25 11 68 8 93 -5 69 10 -29 18
-7 0 -11 5 -7 10 3 5 30 10 61 10 31 0 58 2 62 5 3 3 -17 6 -44 6 -66 0 -38
19 31 21 46 2 47 2 15 8 -28 5 -31 8 -17 14 10 4 33 8 50 8 18 1 24 3 15 6
-28 7 -21 20 14 27 22 4 34 2 37 -6 12 -37 68 -132 79 -136 8 -2 4 11 -10 34
-33 54 -51 99 -46 121 3 13 9 7 22 -22 17 -40 72 -105 89 -105 5 0 -10 23 -32
52 -23 28 -39 53 -36 56 3 3 29 -17 58 -45 57 -55 93 -78 101 -64 3 5 -8 14
-24 21 -52 21 -54 35 -4 31 27 -2 44 1 44 8 0 6 -15 11 -32 12 -18 0 -42 4
-53 9 -15 6 -8 9 28 9 26 1 47 5 47 9 0 5 -13 7 -30 4 -37 -5 -100 6 -100 18
0 4 17 6 38 3 20 -3 53 0 72 5 32 9 29 10 -37 11 -39 1 -74 5 -78 10 -3 6 20
10 56 10 33 0 63 2 67 5 3 3 -26 6 -64 6 -38 0 -76 5 -84 10 -10 7 7 10 57 10
39 0 74 3 76 8 3 4 -33 5 -79 3 -56 -2 -84 1 -84 8 0 7 22 10 58 9 55 -1 122
23 122 44 0 4 -15 -1 -32 -12 -34 -21 -108 -27 -108 -10 0 6 17 10 38 10 20 0
44 5 52 11 11 7 6 9 -20 4 l-35 -7 27 24 c28 24 78 110 78 134 0 26 -18 14
-23 -16 -4 -16 -11 -30 -16 -30 -6 0 -7 7 -4 17 4 11 3 14 -5 9 -7 -4 -12 -17
-12 -30 0 -13 -8 -31 -19 -40 -18 -16 -18 -15 -15 11 4 27 4 27 -8 -4 -19 -46
-31 -53 -26 -15 3 18 1 35 -4 38 -4 3 -8 -11 -8 -30 0 -48 -20 -57 -21 -9 l-2
38 -6 -39 c-8 -54 -28 -58 -23 -5 3 29 1 40 -7 35 -6 -4 -11 -23 -11 -42 0
-19 -5 -34 -11 -34 -6 0 -9 15 -8 34 2 19 0 38 -4 42 -4 4 -7 -11 -7 -34 0
-55 -20 -54 -22 1 -1 40 -1 40 -5 7 -6 -52 -23 -62 -24 -15 l-1 40 -9 -32
c-12 -42 -33 -44 -24 -3 4 19 3 30 -4 30 -6 0 -11 -11 -11 -25 0 -34 -20 -32
-21 3 -1 16 -3 20 -6 10 -2 -10 -11 -18 -20 -18 -9 0 -13 6 -9 15 3 8 1 15 -4
15 -6 0 -10 -5 -10 -12 0 -9 -3 -9 -12 0 -7 7 -18 12 -24 12 -14 0 -70 53 -96
90 -22 31 -24 103 -2 120 13 11 16 10 21 -10 3 -12 18 -45 32 -74 l26 -51 87
0 c109 1 125 11 109 72 -6 23 -18 46 -26 53 -19 16 -10 30 18 30 12 0 49 13
82 29 78 38 116 39 155 4z m99 -17 c7 -8 11 -26 9 -40 -3 -25 -4 -24 -26 14
-17 30 -19 40 -9 40 8 0 20 -6 26 -14z m316 -16 c0 -8 -16 -17 -39 -22 -22 -5
-48 -16 -58 -25 -11 -10 -18 -12 -18 -5 0 7 5 12 10 12 6 0 8 10 4 24 -5 23
-2 25 33 29 56 6 68 3 68 -13z m-1408 -22 c12 -13 37 -75 56 -138 19 -63 38
-123 42 -133 6 -13 -2 -21 -36 -37 -24 -11 -63 -20 -87 -20 -25 0 -41 -4 -37
-10 7 -11 131 -11 162 1 12 5 25 4 28 0 9 -15 -23 -21 -111 -21 -49 0 -84 -4
-84 -10 0 -13 115 -13 163 1 22 6 41 8 44 5 11 -10 -49 -26 -130 -35 l-82 -8
61 -2 c33 0 82 5 107 13 26 8 49 11 52 6 7 -12 -79 -33 -140 -34 -29 0 -51 -4
-48 -9 3 -5 21 -7 39 -5 19 2 34 0 34 -4 0 -4 -15 -9 -32 -9 -24 -1 -27 -3
-10 -6 29 -6 29 -25 0 -21 -27 4 -64 56 -79 110 -5 21 -19 48 -31 60 -17 17
-46 74 -73 143 -15 37 -18 -12 -5 -77 11 -57 8 -78 -10 -78 -16 0 -32 83 -27
132 9 71 76 182 119 195 56 18 93 15 115 -9z m710 -24 c22 -24 40 -70 31 -79
-2 -2 -37 -7 -78 -10 l-75 -7 -27 56 c-16 31 -28 61 -28 67 0 7 25 9 78 4 64
-6 81 -11 99 -31z m707 -24 c-5 -4 -30 -12 -56 -18 -63 -13 -68 12 -5 28 23 6
47 12 52 14 13 4 20 -14 9 -24z m-894 -190 c-36 -12 -118 -12 -125 0 -4 6 22
10 72 9 54 -1 70 -3 53 -9z m70 -19 c0 -9 -80 -21 -142 -21 -66 0 -41 19 30
23 37 2 77 4 90 5 12 1 22 -2 22 -7z m-220 -30 c0 -10 -121 -31 -178 -31 -24
0 -42 5 -45 13 -4 10 8 12 52 9 31 -2 74 1 96 6 52 13 75 14 75 3z m264 -1
c-14 -14 -204 -26 -204 -12 0 10 19 12 175 20 25 1 36 -1 29 -8z m-525 -34
c-2 -2 -20 -7 -39 -10 l-35 -7 35 20 c19 11 37 15 39 10 1 -6 1 -12 0 -13z
m270 4 c-8 -4 -45 -13 -84 -19 -120 -19 -122 -20 -40 -15 44 2 96 7 115 10 23
4 32 3 25 -3 -11 -11 -135 -33 -184 -33 -27 0 -51 21 -51 44 0 3 28 6 63 7 34
0 82 6 107 13 45 12 75 10 49 -4z m359 14 c34 -10 27 -19 -29 -37 -76 -25 -83
-23 -64 13 16 31 41 37 93 24z m-118 -14 c0 -5 -7 -10 -15 -10 -8 0 -15 -7
-15 -15 0 -18 -60 -30 -92 -19 -19 7 -13 10 32 15 l55 6 -67 1 c-38 1 -68 6
-68 12 0 5 30 11 68 13 37 2 75 4 85 5 9 1 17 -2 17 -8z m-220 -59 c0 -4 -40
-13 -88 -20 -108 -14 -122 -14 -122 -1 0 6 24 11 53 11 28 1 66 5 82 9 43 11
75 11 75 1z m75 -8 c40 -19 47 -36 11 -27 -19 4 -32 -1 -51 -20 -14 -14 -27
-26 -29 -26 -2 0 3 20 12 45 8 25 16 45 18 45 2 0 19 -8 39 -17z m-85 -22 c0
-10 -25 -17 -97 -27 -76 -10 -67 10 10 23 88 14 87 14 87 4z m-230 -52 c0 -18
-32 -37 -81 -49 l-34 -8 30 -1 c17 -1 41 6 53 15 12 8 22 11 22 5 0 -12 -13
-20 -50 -31 -34 -10 -58 4 -65 38 -3 19 0 22 33 23 20 1 48 5 62 9 16 6 6 7
-30 3 -63 -7 -63 2 1 20 46 14 59 9 59 -24z m200 11 c-23 -15 -78 -23 -97 -15
-13 6 -2 11 36 17 30 4 57 11 60 13 2 3 7 3 10 -1 3 -3 -1 -9 -9 -14z m-474
-4 c8 -8 14 -19 14 -24 0 -5 10 -13 23 -17 13 -4 17 -8 9 -12 -19 -8 -3 -23
25 -23 18 0 24 -4 20 -14 -4 -10 5 -16 34 -21 21 -4 37 -11 33 -16 -3 -5 14
-9 37 -9 24 0 39 -4 34 -8 -15 -13 -342 -142 -359 -142 -10 0 -17 15 -21 48
-10 70 -24 109 -52 143 -14 16 -22 33 -19 37 7 7 182 70 199 71 5 1 15 -5 23
-13z m341 -32 c2 -6 -6 -14 -19 -17 -27 -7 -30 -5 -22 17 7 18 35 18 41 0z
m38 -52 c-6 -5 -22 -13 -37 -20 -25 -10 -28 -10 -28 8 0 16 7 20 37 20 20 0
33 -4 28 -8z m233 -39 c-1 -5 -14 -27 -28 -51 -24 -41 -27 -43 -63 -37 -23 3
-51 -1 -73 -10 -40 -17 -114 -21 -99 -6 10 10 242 108 258 110 5 1 7 -2 5 -6z
m-68 -123 c0 -6 -27 -10 -62 -10 -45 0 -59 3 -48 10 20 13 110 13 110 0z m-22
-35 c3 -3 -52 -5 -122 -5 -86 0 -125 3 -121 11 7 10 232 5 243 -6z m-137 -35
c-74 -3 -151 -3 -170 1 -20 4 41 6 134 6 l170 0 -134 -7z m119 -30 c0 -6 -73
-10 -200 -10 -127 0 -200 4 -200 10 0 6 73 10 200 10 127 0 200 -4 200 -10z
m550 -402 c-1 -30 -44 -53 -77 -41 -11 5 -8 11 14 29 31 25 63 31 63 12z
m-145 -19 c-50 -10 -122 -10 -155 1 -16 5 16 8 85 8 84 0 101 -2 70 -9z m-573
-129 c50 0 77 -4 73 -10 -7 -11 -155 -14 -192 -4 -35 10 -28 27 8 20 17 -3 67
-6 111 -6z m48 -40 c0 -12 -97 -12 -125 0 -14 6 3 9 53 9 42 1 72 -3 72 -9z
m670 0 c0 -5 -25 -10 -55 -10 -30 0 -55 5 -55 10 0 6 25 10 55 10 30 0 55 -4
55 -10z m-853 -40 c-4 -17 1 -19 47 -23 l51 -3 -57 -2 c-32 -1 -58 2 -58 7 0
5 -3 16 -6 25 -4 11 -1 16 11 16 12 0 16 -6 12 -20z m133 -90 c0 -6 -30 -10
-70 -10 -40 0 -70 4 -70 10 0 6 30 10 70 10 40 0 70 -4 70 -10z m-50 -40 c0
-5 -18 -10 -40 -10 -22 0 -40 5 -40 10 0 6 18 10 40 10 22 0 40 -4 40 -10z" />
        <path d="M1498 2703 c-16 -2 -28 -9 -28 -15 0 -6 10 -8 23 -4 12 3 39 6 60 6
20 0 37 5 37 10 0 10 -38 11 -92 3z" />
        <path d="M1533 2661 c-28 -4 -55 -10 -60 -15 -4 -5 16 -6 47 -2 30 3 65 6 78
6 13 0 20 4 17 10 -3 6 -12 9 -18 9 -7 -1 -35 -5 -64 -8z" />
        <path d="M1533 2623 c-55 -4 -75 -23 -24 -23 43 0 91 11 91 21 0 5 -3 8 -7 7
-5 -1 -32 -3 -60 -5z" />
        <path d="M1200 2610 c-23 -7 -22 -8 10 -9 19 0 42 4 50 9 12 8 10 10 -10 9
-14 -1 -36 -5 -50 -9z" />
        <path d="M1212 2580 c-18 -4 -36 -11 -40 -15 -10 -10 91 6 103 16 11 11 -16
10 -63 -1z" />
        <path d="M1237 2545 c-71 -13 -98 -25 -55 -25 41 0 138 22 138 31 0 5 -3 8 -7
8 -5 -1 -39 -7 -76 -14z" />
        <path d="M1223 2503 c-18 -2 -33 -9 -33 -15 0 -11 80 -1 95 13 9 9 -1 9 -62 2z" />
        <path d="M938 2444 c-27 -8 -48 -19 -48 -25 0 -6 7 -8 16 -5 9 4 36 11 60 17
46 12 69 30 37 28 -10 0 -39 -7 -65 -15z" />
        <path d="M971 2394 c-35 -7 -66 -16 -70 -20 -8 -9 100 3 130 14 42 16 4 19
-60 6z" />
        <path d="M963 2353 c-13 -2 -23 -9 -23 -14 0 -11 50 -1 65 12 9 9 -2 10 -42 2z" />
        <path d="M710 2294 c-30 -15 -49 -29 -42 -31 7 -3 18 -1 25 5 7 5 29 15 50 21
20 7 37 17 37 22 0 14 -10 11 -70 -17z" />
        <path d="M721 2254 c-19 -8 -32 -17 -29 -19 5 -6 78 22 78 30 0 8 -13 5 -49
-11z" />
        <path d="M737 2229 c-22 -11 -37 -23 -34 -26 6 -5 97 33 97 41 0 11 -25 5 -63
-15z" />
        <path d="M240 1774 c0 -9 -12 -25 -26 -36 -35 -28 -46 -61 -38 -122 6 -44 13
-57 52 -93 43 -41 47 -43 108 -43 57 0 64 2 64 19 0 11 9 23 20 26 30 10 50
57 50 120 0 48 -4 59 -27 81 -16 13 -37 33 -49 44 -28 27 -154 30 -154 4z
m163 -64 c22 -24 27 -40 27 -79 0 -43 -4 -52 -35 -80 -50 -44 -95 -43 -141 3
-29 29 -34 41 -34 83 0 38 5 54 23 71 53 50 115 51 160 2z" />
        <path d="M1270 990 c0 -6 26 -9 64 -7 35 1 62 5 59 10 -7 11 -123 9 -123 -3z" />
        <path d="M1286 925 c7 -25 20 -111 29 -192 9 -82 20 -177 24 -213 l8 -65 2 71
c0 39 -6 140 -15 225 -8 85 -16 163 -17 174 -1 14 5 21 21 23 20 3 22 0 22
-50 0 -84 22 -268 33 -268 5 0 6 21 3 48 -3 26 -8 96 -12 155 -5 94 -4 110 11
120 13 10 4 13 -53 15 l-70 2 14 -45z" />
        <path d="M1172 775 c-1 -16 3 -48 7 -70 l9 -40 0 45 c0 25 -4 56 -8 70 -8 24
-8 24 -8 -5z" />
    </g>
</svg>