<svg id="Graphic_Element" data-name="Graphic Element" xmlns="http://www.w3.org/2000/svg" viewBox="0 0 1200 1200"><defs><style>.cls-1{fill:#1e1e1d;}.cls-2{fill:#fff;}.cls-3{fill:#5eb28f;}</style></defs><g id="g4554"><g id="layer2"><path class="cls-1" d="M1091.67,571.11c2.67,6.26-1.92,13.08-9.49,13.83-21.6-.1-43-.09-64.57-.36-12.75,12.08-12.69,37.56,1.47,52.44,20.48,1.3,41,3.23,61.51,3.34a10.48,10.48,0,0,1,8.78,4.67,9.62,9.62,0,0,1,.58,9.61c-14.63,27.7-51.88,52.33-89.81,52.13-63.79-6.83-61.83-52.32-109.93-76.89q-53.57-14-107.11-28.17l5-25.23,8.16-29.38-10.76-26.36.48-6,122,31.89c36.41,4.87,70.86-42.65,124.36-25.55,26.27,8.08,36.28,19.27,57.73,46.93C1090.57,568.94,1091.12,569.92,1091.67,571.11Z"/><path class="cls-1" d="M785.51,520.74l10.76,26.36-8.16,29.38-5,25.23L726,586.62l4-86.47,56,14.63Z"/><path class="cls-1" d="M771.28,426.46l17.64,51.71L786,514.78l-56-14.63.3-6.34,1.74-2.83-1.41-4.27,2.12-45.34-13-.63-.13-2.12,7-23.8L713.46,427l-4.76,13.19-72.35-3.5-1.8-11.47,19.69-28L640.9,384.32l-13,15.91L621.86,436l-67.79-3.28-1.93-7.57,17.06-40.73-18-18.84L535.66,388l10.68,24.5L538.77,432l-85.37-4.13L412.2,417.1l3.85-.61L416.4,383,449,337.91l49.87,2.6,26.56,33.2,30-27.11,40,7.51,33,34L639.24,379l41.1,4.71,29.2,34.36,20.86-11.34ZM458.83,372.09l-1.95-14-3.81-16.42-29.88,40.78,2.77,33.3,28.37-11.53,3.18-14.27Z"/><path class="cls-1" d="M783.1,601.71l-14.67,73.9L730.8,760.05l-18.95,38.73,1.83,112-111.93-5.42L566.57,767.77l63.12,9.74-8-18.35,17.18,10.53,19-30.22-13.58-30.22,24.86-28.54L625,669.46l-14,18.92-33.7,28.78-45.93,30.25-59.81-32.75,15.56,29,12.46,25.58L501,900.47,478.8,899.4l1.89-51.57L485,762.46,460.49,723,363.42,633.7l-8.24-41.11,1.25-24.84-6.63-80.28,4.75,1.24-.46,9.84,4.29.21L363,561l-2.86,32,7.55,34.81,98,77.07,54.83-8.36,10.78-86.6-46,26.14-2.31-48.63-9.37,20.72-49.4-22.56,4.08-5.91L683.3,592l10,14.34L670.48,626l-34.76-23,16.38,51.8,44.53,16.69-11.75-22.2L706,642.11l19.36-33,.22-15.05.35-7.42Z"/><polygon class="cls-1" points="732.76 441.37 730.64 486.71 720.85 457.09 719.81 440.74 732.76 441.37"/><path class="cls-2" d="M720.85,457.09l9.79,29.62-.33,7.1-3.41,5.53-36.12-9.44,17.92-49.69,11.11.53Z"/><path class="cls-3" d="M730.31,493.81l-.3,6.34c-1-.27-2.07-.55-3.11-.81Z"/><path class="cls-1" d="M730,500.15l-4,86.47Q556.6,541.88,387.21,497.25l9.87-7.59,25.56.78,17.21-25.18L452.05,439l-49.24-1.14-4.93,29.75-5.31-21.15.2-4.23-1.27-.06-1-3.81-15-6.42-5.82,9.18-1-.05.81-17.3,83.85,4.05,79,20.64-5.07,13.08,3.53,39.54,23.07,19.45,10.47-16.37-4.86-48.61L616,470.36l-7.35,43.25,19.38,15.63L651.13,525l13.49-41.93,26.16,6.84-7.87,21.82,11.41,12,19.4-3,13.18-21.38C727.94,499.6,729,499.88,730,500.15Z"/><path class="cls-2" d="M726.9,499.34l-13.18,21.38-19.4,3-11.41-12,7.87-21.82Z"/><path class="cls-1" d="M726,586.62l-.35,7.42-52.11-16,9.79,14L428.24,579.66l6.27-9.07-12.76,8.76-6.61-.32L422,554.84l-25.32,1.29-8.76-15.21,19.3-15.33-13.14-23.26L377,505.11l10.22-7.86Q556.67,541.64,726,586.62Z"/><polygon class="cls-2" points="725.62 594.04 683.3 591.99 673.51 578.02 725.62 594.04"/><path class="cls-1" d="M708.7,440.21,690.78,489.9l-26.16-6.84,6-18.61L656.84,481l-14.13-3.69-6.36-40.63Z"/><path class="cls-2" d="M670.61,464.45l-6,18.61-7.78-2Z"/><path class="cls-2" d="M664.62,483.06,651.13,525l-23.08,4.25-19.38-15.63L616,470.36l26.69,7,2.73,17.42L656.84,481Z"/><path class="cls-1" d="M656.84,481l-11.4,13.73-2.73-17.42Z"/><path class="cls-2" d="M636.35,436.71l6.36,40.63-26.69-7L621.86,436Z"/><path class="cls-1" d="M621.86,436,616,470.36l-56.51-14.77-.25-2.49-5.19-20.37Z"/><path class="cls-2" d="M559.51,455.59l4.86,48.61L553.9,520.57l-23.07-19.45-3.53-39.54,5.07-13.08Z"/><path class="cls-2" d="M559.26,453.1l.25,2.49-27.14-7.09,6.4-16.51,15.3.74Z"/><path class="cls-1" d="M538.77,432l-6.4,16.51-79-20.64Z"/><path class="cls-1" d="M453.4,427.86l-83.85-4.05,42.65-6.71Z"/><path class="cls-2" d="M452.05,439l-12.2,26.22-17.21,25.18-25.56-.78-9.87,7.59-4.27-1.12,1-20.79,7.3.35,1.36-29.19,5.31,21.15,4.93-29.75Z"/><polygon class="cls-2" points="434.51 570.59 428.24 579.66 421.75 579.35 434.51 570.59"/><polygon class="cls-1" points="421.75 579.35 413.44 585.05 415.14 579.03 421.75 579.35"/><path class="cls-1" d="M412.2,417.1l-42.65,6.71-13,31.13h0V455l-7.84,18.73,1.14,13.75q-44.93-11.75-89.86-23.38c-16.74-3.15-36.18,6.8-55.38,15.91-10.91,5.56-26.1,8.07-41,7.73-33.09-3.08-53.66-20.44-70.23-48.9a9.54,9.54,0,0,1,.83-9.38,10.39,10.39,0,0,1,8.65-4.45c19.48.11,38.87.11,58.31.3,6.14-11.14,7.79-36.09-1.74-45.48-18.49-1.18-36.64-3.14-55.17-3a10.47,10.47,0,0,1-8.79-4.67,9.56,9.56,0,0,1-.58-9.58c15.17-30.18,47-50,81.95-47.69,22,2.72,41.47,17.06,58.21,36.34,9.87,11.36,26.45,25.94,45.18,31.35Z"/><polygon class="cls-1" points="392.77 442.27 392.57 446.5 391.5 442.21 392.77 442.27"/><polygon class="cls-2" points="391.5 442.21 392.57 446.5 391.21 475.69 383.91 475.34 384.41 464.58 373.92 464.07 374.52 451.16 368.29 450.86 368.66 442.82 369.71 441.16 391.5 442.21"/><polygon class="cls-2" points="391.5 442.21 369.71 441.16 375.53 431.98 390.54 438.4 391.5 442.21"/><path class="cls-2" d="M382.76,499.93l.18-3.8,4.27,1.12L377,505.11l17.07-2.78,13.14,23.26-19.3,15.33,8.76,15.21L422,554.84,415.14,579l-52.72-2.55.72-15.49L366,499.12Z"/><polygon class="cls-2" points="384.41 464.58 383.91 475.34 367.18 474.52 367.66 464.32 373.89 464.62 373.92 464.07 384.41 464.58"/><path class="cls-2" d="M383.91,475.34l-1,20.79-16.57-4.33.81-17.28Z"/><path class="cls-2" d="M382.94,496.13l-.18,3.8L366,499.12l.34-7.32Z"/><polygon class="cls-2" points="374.52 451.16 373.92 464.07 367.68 463.77 368.29 450.86 374.52 451.16"/><polygon class="cls-2" points="373.92 464.07 373.89 464.62 367.66 464.32 367.68 463.77 373.92 464.07"/><polygon class="cls-3" points="369.71 441.16 368.66 442.82 368.74 441.11 369.71 441.16"/><polygon class="cls-1" points="368.74 441.11 368.66 442.82 363.71 450.64 362.65 450.59 363.11 440.84 368.74 441.11"/><polygon class="cls-2" points="368.66 442.82 368.29 450.86 363.71 450.64 368.66 442.82"/><polygon class="cls-2" points="368.29 450.86 367.68 463.77 367.07 463.74 367.46 455.47 362.44 455.23 362.57 452.44 363.71 450.64 368.29 450.86"/><polygon class="cls-2" points="367.68 463.77 367.66 464.32 367.04 464.29 367.07 463.74 367.68 463.77"/><polygon class="cls-2" points="367.66 464.32 367.18 474.52 361.55 474.25 362 464.51 367.02 464.75 367.04 464.29 367.66 464.32"/><rect class="cls-2" x="360.62" y="456.97" width="8.28" height="5.03" transform="translate(-111.4 802.19) rotate(-87.3)"/><path class="cls-2" d="M367.18,474.52l-.81,17.28-8.67-2.27L356.55,474l5,.24Z"/><polygon class="cls-2" points="367.07 463.74 367.04 464.29 362.03 464.05 362.05 463.5 367.07 463.74"/><polygon class="cls-2" points="367.04 464.29 367.02 464.75 362 464.51 362.03 464.05 367.04 464.29"/><path class="cls-2" d="M366.37,491.8l-.34,7.32-7.65-.36-.68-9.23Z"/><polygon class="cls-1" points="363.71 450.64 362.57 452.44 362.65 450.59 363.71 450.64"/><polygon class="cls-1" points="362.65 450.59 362.57 452.44 360.85 455.15 358.33 455.03 358.55 450.39 362.65 450.59"/><polygon class="cls-2" points="362.57 452.44 362.44 455.23 360.85 455.15 362.57 452.44"/><polygon class="cls-1" points="363.11 440.84 362.65 450.59 358.55 450.39 358.33 455.03 356.52 454.94 369.55 423.81 368.74 441.11 363.11 440.84"/><polygon class="cls-2" points="362.44 455.23 362.05 463.5 357.95 463.31 357.95 463.3 358.13 459.45 360.85 455.15 362.44 455.23"/><polygon class="cls-2" points="362.05 463.5 362.03 464.05 362.02 464.05 362.05 463.5"/><polygon class="cls-2" points="362.05 463.5 362.02 464.05 357.92 463.85 357.95 463.31 362.05 463.5"/><polygon class="cls-2" points="362.03 464.05 362 464.51 362.02 464.05 362.03 464.05"/><polygon class="cls-1" points="360.85 455.15 358.13 459.45 358.33 455.03 360.85 455.15"/><path class="cls-1" d="M357.7,489.53l.68,9.23-4.29-.21.46-9.84Z"/><polygon class="cls-1" points="358.33 455.03 358.13 459.45 356.15 462.57 356.5 454.99 356.52 454.94 358.33 455.03"/><polygon class="cls-2" points="358.13 459.45 357.95 463.3 356.12 463.22 356.15 462.57 358.13 459.45"/><polygon class="cls-2" points="357.95 463.3 357.95 463.31 356.12 463.22 357.95 463.3"/><polygon class="cls-2" points="356.07 464.22 356.12 463.22 357.95 463.31 357.92 463.85 362.02 464.05 362 464.51 356.07 464.22"/><path class="cls-1" d="M356.55,474l1.15,15.52-3.15-.82.69-14.76h0Z"/><polygon class="cls-1" points="355.75 463.2 356.55 474.01 355.25 473.95 355.75 463.2"/><polygon class="cls-2" points="356.52 454.94 356.5 454.99 356.5 454.94 356.52 454.94"/><polygon class="cls-3" points="355.75 463.2 356.15 462.57 356.12 463.22 355.75 463.2"/><polygon class="cls-2" points="356.12 463.22 356.07 464.22 362 464.51 361.55 474.25 356.55 474.01 355.75 463.2 356.12 463.22"/><polygon class="cls-3" points="355.75 463.2 355.25 473.95 355.24 473.95 355.75 463.2"/><path class="cls-1" d="M355.75,463.2,355.24,474l-.69,14.76-4.75-1.24-1.14-13.75L356.5,455l-.35,7.58Z"/></g></g></svg>